<svg xmlns="http://www.w3.org/2000/svg" viewBox="0 0 900 560" role="img" aria-labelledby="title desc">
  <title id="title">Country site placeholder</title>
  <desc id="desc">Minimal map and institution placeholder image.</desc>
  <rect width="900" height="560" fill="#f7f4ee"/>
  <rect x="90" y="92" width="312" height="340" rx="22" fill="#12324a"/>
  <rect x="128" y="132" width="160" height="18" rx="9" fill="#c89252"/>
  <rect x="128" y="185" width="224" height="16" rx="8" fill="#eaf1f3" opacity=".86"/>
  <rect x="128" y="224" width="190" height="16" rx="8" fill="#eaf1f3" opacity=".66"/>
  <rect x="128" y="263" width="232" height="16" rx="8" fill="#eaf1f3" opacity=".48"/>
  <path d="M571 117c87-52 203 6 216 106 8 62-19 121-70 154-43 29-63 70-75 119-12-49-33-90-77-119-78-51-76-213 6-260z" fill="#6eaaa0"/>
  <circle cx="642" cy="256" r="67" fill="#fff"/>
  <path d="M608 256h68M642 222v68" stroke="#c89252" stroke-width="14" stroke-linecap="round"/>
</svg>
